<svg width="88" height="45" viewBox="0 0 88 45" fill="none" xmlns="http://www.w3.org/2000/svg">
<path d="M49.5603 15.8874C48.2789 15.8874 47.0286 16.3224 46.0268 17.1226V10.5972H42.5322V27.9905H46.0268V26.9495C47.0286 27.7574 48.2712 28.1925 49.5603 28.1925C52.7909 28.1925 55.4157 25.4347 55.4157 22.0399C55.4157 18.6452 52.7909 15.8874 49.5603 15.8874ZM48.939 25.2016C47.5334 25.2016 46.3608 24.1918 46.0268 22.8245C45.9026 22.3118 45.9026 21.7758 46.0268 21.2553C46.3608 19.8881 47.5334 18.8782 48.939 18.8782C50.6009 18.8782 51.9444 20.2921 51.9444 22.0399C51.9444 23.7878 50.6009 25.2016 48.939 25.2016Z" fill="white"/>
<path d="M67.133 24.8987V27.7497C63.685 28.6897 60.0506 28.6819 56.6104 27.7264V25.6367L57.0375 25.1318L58.9712 22.8323H57.3947V20.665H60.7961L62.9395 18.1247C62.5823 18.1092 62.2173 18.1014 61.86 18.1014C60.1516 18.1014 58.4431 18.2801 56.7657 18.6297V15.8408C60.1593 15.1339 63.654 15.1417 67.0476 15.8641V18.0548L66.6205 18.5442L64.78 20.6572H66.3798V22.8246H62.9007L60.4544 25.6289C60.8505 25.6522 61.2466 25.6678 61.6426 25.6678C63.4986 25.6678 65.3469 25.4114 67.133 24.8987Z" fill="white"/>
<path opacity="0.6" d="M45.1019 34.6788C45.498 34.6788 45.8474 34.741 46.1425 34.873C46.4376 35.0051 46.6706 35.1915 46.8259 35.4401C46.9812 35.6887 47.0666 35.9761 47.0666 36.3179C47.0666 36.652 46.989 36.9394 46.8259 37.1957C46.6706 37.4443 46.4376 37.6308 46.1425 37.7628C45.8474 37.8949 45.5057 37.957 45.1019 37.957H44.0613V39.2854H43.207V34.6788H45.1019ZM45.0631 37.2346C45.4358 37.2346 45.7154 37.1569 45.9095 37.0015C46.1037 36.8462 46.1969 36.6209 46.1969 36.3257C46.1969 36.0305 46.1037 35.8052 45.9095 35.6498C45.7154 35.4945 45.4358 35.4168 45.0631 35.4168H44.0613V37.2424L45.0631 37.2346ZM51.0816 38.563V39.2854H47.6879V38.7106L49.5129 36.9705C49.7226 36.7763 49.8546 36.6054 49.9245 36.4578C50.0021 36.3102 50.0332 36.1626 50.0332 36.015C50.0332 35.7974 49.9633 35.6343 49.8157 35.5178C49.6682 35.4013 49.4585 35.3469 49.179 35.3469C48.713 35.3469 48.348 35.51 48.0995 35.8285L47.5015 35.3702C47.6801 35.1294 47.9209 34.9429 48.2238 34.8109C48.5266 34.671 48.8761 34.6089 49.2488 34.6089C49.7458 34.6089 50.1497 34.7254 50.4448 34.9662C50.7399 35.1993 50.8952 35.5256 50.8952 35.9295C50.8952 36.1781 50.8408 36.4111 50.7399 36.6364C50.6389 36.8539 50.437 37.1025 50.1341 37.39L48.9071 38.563H51.0816ZM53.9239 34.6788C54.3199 34.6788 54.6694 34.741 54.9645 34.873C55.2596 35.0051 55.4926 35.1915 55.6479 35.4401C55.8032 35.6887 55.8886 35.9761 55.8886 36.3179C55.8886 36.652 55.811 36.9394 55.6479 37.1957C55.4926 37.4443 55.2596 37.6308 54.9645 37.7628C54.6694 37.8949 54.3277 37.957 53.9239 37.957H52.8832V39.2854H52.029V34.6788H53.9239ZM53.885 37.2346C54.2578 37.2346 54.5374 37.1569 54.7315 37.0015C54.9257 36.8462 55.0188 36.6209 55.0188 36.3257C55.0188 36.0305 54.9257 35.8052 54.7315 35.6498C54.5374 35.4945 54.2578 35.4168 53.885 35.4168H52.8832V37.2424L53.885 37.2346ZM60.2996 39.3553C59.9424 39.3553 59.6007 39.3087 59.2667 39.2077C58.9406 39.1068 58.6765 38.9747 58.4824 38.8038L58.7775 38.1435C58.9639 38.2911 59.1969 38.4154 59.4687 38.5086C59.7482 38.6018 60.02 38.6484 60.2996 38.6484C60.6413 38.6484 60.8976 38.594 61.0607 38.4853C61.2315 38.3765 61.3169 38.2289 61.3169 38.0503C61.3169 37.9182 61.2703 37.8094 61.1694 37.7318C61.0762 37.6463 60.9597 37.5764 60.8121 37.5298C60.6646 37.4832 60.4705 37.4288 60.2219 37.3666C59.8725 37.2812 59.5851 37.2035 59.3677 37.1181C59.1503 37.0326 58.9639 36.9083 58.8086 36.7296C58.6533 36.551 58.5756 36.3102 58.5756 36.0072C58.5756 35.7508 58.6455 35.5256 58.7775 35.3158C58.9173 35.1061 59.127 34.9352 59.3988 34.8186C59.6783 34.6943 60.02 34.6322 60.4239 34.6322C60.7034 34.6322 60.983 34.671 61.2548 34.7409C61.5266 34.8109 61.7596 34.9119 61.9615 35.0439L61.6897 35.712C61.4878 35.5955 61.2781 35.5022 61.0607 35.4401C60.8432 35.378 60.6258 35.3469 60.4239 35.3469C60.0899 35.3469 59.8337 35.4013 59.6706 35.5178C59.5075 35.6343 59.4298 35.7819 59.4298 35.9683C59.4298 36.1004 59.4764 36.2092 59.5696 36.2869C59.6628 36.3723 59.7871 36.4344 59.9346 36.4811C60.0822 36.5277 60.2763 36.582 60.5248 36.6442C60.8665 36.7219 61.1461 36.8073 61.3635 36.8928C61.581 36.9782 61.7673 37.1025 61.9227 37.2812C62.078 37.4599 62.1556 37.6929 62.1556 37.9881C62.1556 38.2445 62.0857 38.4698 61.946 38.6795C61.8062 38.8892 61.6043 39.0524 61.3247 39.1689C61.0451 39.2932 60.7034 39.3553 60.2996 39.3553ZM66.5822 38.5707V39.2854H63.1341V34.6788H66.4967V35.3935H63.9884V36.5898H66.2094V37.2967H63.9884V38.563L66.5822 38.5707ZM70.6747 39.2854L69.7351 37.9337C69.6963 37.9415 69.6341 37.9415 69.5565 37.9415H68.5159V39.2854H67.6616V34.6788H69.5565C69.9525 34.6788 70.302 34.741 70.5971 34.873C70.8922 35.0051 71.1252 35.1915 71.2805 35.4401C71.4358 35.6887 71.5135 35.9761 71.5135 36.3179C71.5135 36.6675 71.428 36.9627 71.2572 37.2113C71.0941 37.4599 70.8534 37.6463 70.535 37.7706L71.5911 39.2854H70.6747ZM70.6592 36.3179C70.6592 36.0227 70.566 35.7974 70.3719 35.6421C70.1777 35.4867 69.8982 35.409 69.5254 35.409H68.5236V37.2424H69.5254C69.8982 37.2424 70.1777 37.1647 70.3719 37.0093C70.5583 36.8384 70.6592 36.6131 70.6592 36.3179ZM76.8097 34.6788L74.8062 39.2854H73.9675L71.9561 34.6788H72.8802L74.4101 38.2289L75.9555 34.6788H76.8097ZM77.4232 34.6788H78.2775V39.2854H77.4232V34.6788ZM81.7799 39.3553C81.3139 39.3553 80.8946 39.2544 80.5218 39.0524C80.1491 38.8426 79.8539 38.563 79.6443 38.2056C79.4346 37.8483 79.3259 37.4443 79.3259 36.986C79.3259 36.5277 79.4346 36.1315 79.6443 35.7664C79.8617 35.409 80.1491 35.1294 80.5218 34.9274C80.8946 34.7176 81.3217 34.6167 81.7876 34.6167C82.1604 34.6167 82.5099 34.6788 82.8205 34.8109C83.1311 34.9429 83.3952 35.1294 83.6126 35.3857L83.0612 35.9062C82.7273 35.5489 82.3157 35.3702 81.8342 35.3702C81.5158 35.3702 81.2363 35.4401 80.9878 35.5799C80.7393 35.712 80.5451 35.9062 80.4053 36.1548C80.2655 36.4034 80.1956 36.6753 80.1956 36.9938C80.1956 37.3123 80.2655 37.5842 80.4053 37.8327C80.5451 38.0813 80.7393 38.2678 80.9878 38.4076C81.2363 38.5474 81.5236 38.6096 81.8342 38.6096C82.3235 38.6096 82.7273 38.4309 83.0612 38.0658L83.6126 38.594C83.3952 38.8426 83.1311 39.0368 82.8205 39.1689C82.5021 39.2854 82.1526 39.3553 81.7799 39.3553ZM88.0003 38.5707V39.2854H84.5523V34.6788H87.9149V35.3935H85.4143V36.5898H87.6353V37.2967H85.4143V38.563L88.0003 38.5707Z" fill="white"/>
<path d="M2.55457 29.3757C2.99237 28.6458 4.37875 28.7674 4.79223 28.7918C5.18138 28.8161 6.56776 29.0107 7.5893 30.0569C8.00278 30.4949 7.90549 30.5922 8.31897 30.9572C8.97568 31.5168 9.36483 31.3221 10.4593 31.8574C11.4322 32.3197 11.9917 32.6116 12.2106 32.8549C12.3322 33.0009 12.7213 32.636 13.3537 32.5143C14.0834 32.3926 14.7644 32.052 15.5184 31.5898C16.2481 31.1275 16.4426 30.7139 16.6615 30.3976C16.8318 30.1299 17.0994 29.8866 17.148 28.4511C17.221 26.602 17.0021 25.6775 16.9534 25.4829C16.8561 24.9719 16.5399 23.8284 16.8075 23.2445C16.8318 23.1715 16.9048 23.0742 16.9291 22.9282C16.9777 22.5146 16.6615 22.1983 16.7832 22.0523C16.8561 21.9793 16.9534 22.0036 16.9534 21.955C16.9534 21.9063 16.7102 21.9063 16.4913 21.7603C16.321 21.6387 16.2967 21.5414 16.1265 21.3224C15.9319 21.0791 15.7937 20.865 15.6235 20.6947C14.7722 19.7945 14.3752 19.157 14.3752 19.157C14.278 18.938 14.205 18.7434 14.0104 18.6217C13.6942 18.4271 13.4267 18.6947 12.7456 18.7434C12.0403 18.792 12.0646 18.5487 11.3349 18.6217C10.8971 18.6704 10.6296 18.7677 10.3377 18.5974C10.1918 18.5244 10.0945 18.4027 9.94857 18.4027C9.77832 18.4271 9.70535 18.5974 9.60806 18.719C9.38916 18.9867 9.09729 19.0597 8.61084 19.1813C8.3433 19.2543 5.40029 19.9356 4.74358 18.7434C4.549 18.3784 4.52468 17.8188 4.79223 17.5512C4.91384 17.4295 5.05977 17.4052 5.32732 17.3565C5.64351 17.2836 5.93538 17.1132 6.49479 16.7483C7.61362 16.067 7.69077 15.5296 8.51773 15.1404C8.85825 14.9701 9.51077 14.9235 10.8728 14.9235C12.7943 14.9235 12.7456 15.0452 13.5483 14.9722C15.0319 14.8019 15.2995 14.3639 16.1021 14.5342C16.8561 14.6802 17.2453 15.1912 18.0966 16.1644C18.2911 16.3833 20.1153 18.4271 21.9395 20.0085C22.353 20.3735 23.3988 21.2494 24.615 22.5146C25.0041 22.9282 25.296 23.2688 25.5392 23.7797C25.9527 24.607 25.9041 25.1909 26.0013 26.2614C26.0013 26.3587 26.2202 27.3806 26.6337 29.473C26.9986 31.3221 27.1931 32.2467 27.2661 32.6116C27.8012 35.0447 28.0687 36.2612 28.4093 37.1614C28.8714 38.3536 29.1633 38.7429 29.1146 39.5944C29.0416 40.7623 28.3606 41.6138 28.1174 41.9058C26.6581 43.6576 24.2745 43.8522 22.6692 43.9495C22.28 43.9739 18.9965 44.1928 16.8318 42.8303C15.6157 42.0761 14.7401 41.2002 14.7401 41.2002C14.4239 40.8839 14.278 40.7136 13.8645 40.373C13.2078 39.8134 12.9889 39.7647 12.4781 39.2781C12.0646 38.8645 12.0889 38.7672 11.6998 38.4266C11.3349 38.0859 10.9944 37.9156 10.6296 37.6966C9.82696 37.2344 9.04864 36.7234 8.29465 36.3342C7.12718 35.7259 6.85963 35.7502 6.42183 35.4339C6.15428 35.2393 6.00835 35.0933 5.69216 34.9473C5.49758 34.85 5.41653 34.8382 5.29492 34.7166C5.10034 34.4976 4.90663 33.9739 4.90663 33.9009C4.8823 33.3413 4.50036 32.8793 4.08688 32.125C3.40585 30.8842 2.33567 30.6165 2.43296 29.765C2.43296 29.7163 2.45728 29.546 2.55457 29.3757Z" fill="white"/>
<path d="M16.9817 14.9854C17.2006 14.8151 17.0256 14.2913 16.8067 12.5152C16.7094 11.7609 16.6364 11.2257 16.5878 11.031C16.2716 8.79263 16.3202 8.62232 16.1013 7.62478C15.8338 6.4326 15.7608 6.6759 15.5176 5.55671C15.2732 3.91554 15.5254 2.53731 15.6227 2.24535C15.7686 1.88039 15.9222 1.25022 16.5546 1.07991C16.9924 0.958256 17.4391 1.05561 17.4877 1.07994C17.6093 1.1286 17.9498 1.27458 18.1444 1.63954C18.3147 1.98016 18.1687 2.1748 18.2174 2.80739C18.2417 3.00203 18.2903 3.26966 18.4363 3.82926C18.5336 4.19421 18.6552 4.70515 18.8498 5.31341C19.02 5.82434 19.1173 6.01898 19.2876 6.52992C19.5794 7.30849 19.7983 8.01407 20.1875 9.40089C20.4307 10.2525 20.5523 10.6661 20.601 10.9337C20.6253 11.0553 20.6983 11.3716 20.8685 11.6149C20.9172 11.6879 20.8442 11.6879 21.0144 11.8582C21.209 12.0529 21.1604 12.0529 21.2333 12.1502C21.4766 12.4908 21.3306 12.7585 21.5495 13.1478C21.7198 13.4884 22.036 13.4397 22.0846 13.7073C22.1576 14.0966 21.8657 14.2669 21.963 14.3643C22.0117 14.4129 22.0846 14.3886 22.1819 14.4129C22.5224 14.5102 22.4008 15.5808 22.5468 15.6051C22.6197 15.6051 22.6927 15.2888 22.8143 14.6076C23.0089 13.61 22.9359 13.464 23.0332 12.3205C23.1305 11.25 23.3251 10.5931 23.2764 10.1308C23.2521 9.93616 23.3251 9.83884 23.3008 9.71719C23.3008 9.40089 23.2035 9.25491 23.2764 9.01161C23.3007 8.86563 23.398 8.79263 23.4224 8.71964C23.471 8.30603 23.3737 7.67344 23.398 7.45447C23.4953 6.16497 23.7872 4.65649 24.7844 4.0239C24.8574 3.97524 25.0276 3.75627 25.4898 3.73194C25.8789 3.70761 26.5356 3.80493 26.7545 4.21854C26.8761 4.43752 26.8275 4.68082 26.7545 4.99711C26.7545 4.99711 26.5356 6.14064 26.4627 7.62478C26.4383 8.13572 26.414 8.0384 26.4627 9.13326C26.487 9.76585 26.5599 9.91183 26.5356 11.7853C26.5356 12.8315 26.5356 12.9045 26.5356 13.0261C26.6329 13.8047 26.7545 13.9993 26.7789 14.6806C26.8032 15.4105 26.6816 15.8241 26.7302 15.8484C26.8032 15.8727 26.9734 15.0212 27.6545 14.2669C27.8734 13.9993 28.3355 13.4884 28.8706 13.5857C29.0652 13.61 29.2841 13.756 29.3813 13.9507C29.5273 14.2426 29.3327 14.5832 29.1138 15.1185C28.9435 15.5078 28.8219 15.8727 28.5787 16.627C28.3112 17.5029 28.3112 17.7218 27.995 18.5247C27.8734 18.841 27.8734 18.7924 27.7274 19.1573C27.2653 20.3009 27.3626 20.4468 26.9005 21.712C26.8032 22.004 26.6329 22.4662 26.6086 23.0015C26.6086 23.1962 26.6086 23.3908 26.6086 23.3908C26.6086 23.7314 26.6329 23.9747 26.6572 24.218C26.7302 24.9723 26.6329 24.1937 26.7789 26.5294C26.9734 29.4734 27.1923 31.7847 27.1194 31.8091C27.0464 31.8091 26.8032 29.5707 26.0492 26.3834C25.5871 24.4613 25.3682 23.5124 24.906 22.8069C24.1764 21.712 23.7872 21.8823 21.3793 19.5466C19.847 18.0625 20.0172 18.0138 19.3119 17.5272C18.339 16.8703 17.4634 16.6027 17.1472 15.7024C17.0985 15.3618 17.2492 15.2287 16.9817 14.9854C16.4952 14.5475 15.4446 14.5346 15.4203 14.6319C15.4203 14.7049 16.5439 15.3017 16.9817 14.9854Z" fill="white"/>
<path d="M14.666 32.0038C14.9579 31.7362 16.0037 31.6389 16.6604 30.5927C16.8064 30.3494 16.8793 30.0817 17.0009 29.5465C17.1955 28.6463 17.1955 27.6974 17.0982 26.9918C17.0739 26.7485 17.0496 26.5052 17.0009 26.2619C16.928 25.7996 16.9766 25.6293 16.9766 25.4833L16.9523 25.2157C16.9523 24.8507 16.8064 24.6561 16.7577 24.1938C16.7334 23.8532 16.7334 23.5126 16.8793 23.3179C16.9766 23.1719 17.0009 23.0016 17.0009 23.0016C17.0253 22.6853 16.6361 22.2474 16.855 22.1257C17.1225 21.9798 16.9036 22.0284 16.8064 21.9554C16.6847 21.8824 16.4415 21.7365 16.174 21.4202C15.4443 20.5443 15.0065 20.009 14.4228 19.1575C14.3255 19.0115 14.1795 18.9385 14.1066 18.6952C14.0579 18.5249 13.8147 18.5492 13.8147 18.5492C13.0364 18.7925 12.8661 18.5979 11.4068 18.6708C10.896 18.6952 10.4339 18.7925 10.3123 18.5249C10.2636 18.3789 9.99609 18.5249 9.99609 18.5249C9.87447 18.5979 9.92312 18.6952 9.26641 19.0115C8.41513 19.4251 8.51242 19.3521 8.43945 19.3521C8.19623 19.4008 7.75843 19.4737 7.22333 19.4981C6.93146 19.5224 5.35051 19.6927 4.76677 18.6952C4.62084 18.4519 4.62084 18.2329 4.64516 18.0626C4.64516 17.9409 4.69381 17.8193 4.74245 17.722C4.7911 17.649 4.86406 17.5517 4.93703 17.503C5.47212 17.2354 5.69102 17.211 6.05586 17.0894C6.27476 17.0164 6.49366 16.7974 7.32062 16.1405C8.2692 15.3863 8.19623 15.3133 8.36649 15.2159C8.56107 15.1186 9.02319 14.997 10.5312 14.9726C11.8932 14.9483 12.3797 15.0456 13.4255 14.9726C14.3984 14.8997 14.6417 14.8267 14.9092 14.7293C15.1524 14.6564 15.4686 14.3887 15.8578 14.4617C16.0037 14.486 16.2226 14.5347 16.5631 14.7537C17.1225 15.1186 17.4631 15.5809 17.536 15.6782C17.7792 16.0188 18.29 16.4811 19.3116 17.43C20.0656 18.1356 20.5763 18.5492 20.6979 18.7925C20.7223 18.8412 20.7466 18.8655 20.8195 18.9141C20.9655 19.0845 21.0384 19.1575 21.0628 19.1818C21.2087 19.3278 21.306 19.4251 21.4033 19.4494C21.6465 19.5711 21.8654 19.8387 22.1816 20.1793C22.6924 20.7146 23.1545 21.0066 23.8112 21.6148C24.7598 22.4907 25.2462 22.9043 25.5624 23.6342C25.684 23.9019 25.8056 24.6561 26.0489 26.1646C26.1705 26.9675 26.2191 27.2838 26.3407 27.9893C26.4623 28.6463 26.5596 28.9869 26.6812 29.4978C26.7542 29.7654 26.8029 30.0088 26.8515 30.2277C26.9488 30.7387 26.9974 30.982 27.1434 31.7362C27.265 32.3201 27.2407 32.2228 27.3136 32.6364C27.5812 34.0232 27.6298 34.4612 27.873 35.3614C27.8974 35.4344 27.8974 35.4831 27.9217 35.556C28.0433 35.921 28.2379 36.5049 28.627 37.6485C29.0892 39.0353 29.1621 39.1569 29.1621 39.4732C29.2108 40.6167 28.5054 41.517 28.1649 41.9306C26.5596 43.95 23.6409 43.9743 22.1816 43.9987C20.6736 44.023 19.5548 43.7554 18.7521 43.5364C17.9252 43.3417 16.928 42.9281 16.7577 42.7578L16.174 42.5145C15.9794 42.3685 16.028 42.2955 15.7362 42.0036C15.2984 41.5656 14.9822 41.4683 14.8849 41.371L14.593 41.152C14.3255 41.006 14.3011 40.8357 14.0093 40.5194C13.4012 39.8382 12.8904 39.6679 12.7688 39.5219L12.5499 39.3272C12.3067 39.1813 12.2094 38.938 12.1121 38.8406C11.9419 38.6217 11.6743 38.3297 10.6041 37.6728C8.58539 36.4806 7.58817 35.8723 7.0774 35.775C6.95579 35.7507 6.68824 35.629 6.51799 35.4587C6.46934 35.4101 6.39637 35.4101 6.39637 35.4101C6.27476 35.4344 6.22612 35.2398 5.95857 35.0208C5.64238 34.7775 5.47212 34.8505 5.32619 34.7288L5.13161 34.3395C5.03432 34.1449 4.91271 33.9503 4.64516 33.269C4.42626 32.6851 4.256 32.2715 3.91549 31.8335C3.74523 31.6145 3.79388 31.7119 3.23446 31.1036C2.65073 30.4467 2.50479 30.2277 2.48047 29.9114C2.48047 29.6438 2.57776 29.4492 2.60208 29.3762C2.8453 28.8896 3.35608 28.7679 3.52633 28.6949C3.84252 28.5976 4.11007 28.5976 4.37762 28.6463C5.39916 28.8652 5.93425 28.8409 6.98011 29.4978C7.05308 29.5465 7.27198 29.7898 7.49088 29.8871C7.53953 29.9114 7.58817 29.9114 7.61249 29.9601L7.7341 30.2277C7.88004 30.5683 8.0503 30.544 8.22055 30.763C8.43945 31.0793 8.90158 31.2253 9.87447 31.5416C10.0204 31.5902 11.577 32.1012 11.9662 32.4661C12.0878 32.5878 12.1608 32.7337 12.1608 32.7337C12.2581 32.9527 12.2581 33.1717 12.2824 33.1717C12.3067 33.1717 12.2337 32.9041 12.331 32.7337C12.4283 32.5634 12.6715 32.5148 12.7932 32.5148C13.7661 32.3445 13.7661 32.3445 14.3741 32.1255L14.666 32.0038Z" stroke="#212473" stroke-width="0.182477" stroke-miterlimit="10"/>
<path d="M22.1098 14.1452C22.1828 13.9749 22.0855 13.8046 21.9882 13.6099C21.8909 13.4153 21.6477 13.318 21.5747 13.1477C21.5261 13.0504 21.5261 12.9287 21.5261 12.9287C21.5261 12.88 21.4774 12.7097 21.4045 12.4178C21.3558 12.2475 21.3072 12.1501 21.2585 12.0528C21.1369 11.8582 21.0396 11.8338 20.9424 11.6635C20.8694 11.5419 20.8694 11.4202 20.8451 11.3472C20.8451 11.3229 20.6991 10.885 20.4559 10.0091C20.0181 8.54925 19.7992 7.79501 19.6046 7.23542C19.1182 5.82426 18.9722 5.65395 18.6804 4.58342C18.5101 3.95083 18.4372 3.63454 18.3885 3.26958C18.2182 2.17472 18.3885 1.8341 18.0966 1.44481C17.7804 1.05553 17.1724 0.909547 16.6859 1.05553C16.0049 1.25017 15.7374 1.98008 15.5914 2.3207C15.3969 2.85597 15.4212 3.41556 15.4698 4.53476C15.4941 4.87538 15.4941 5.16734 15.5671 5.5323C15.6644 6.18921 15.8103 6.45685 15.9563 7.04077C16.0779 7.47872 16.1508 7.94099 16.2968 8.86554C16.4427 9.76576 16.5157 10.4227 16.5643 10.9336C16.6859 12.0285 17.0508 13.1233 17.0021 14.2182C17.0021 14.3885 16.9535 14.8265 17.1967 15.2887C17.367 15.605 17.5859 15.7753 17.6832 15.8727C18.5588 16.5782 19.2884 17.4541 20.1154 18.2084C20.5289 18.5733 20.7964 18.841 21.2829 19.2789C23.4232 21.2496 23.1314 21.0793 23.5935 21.4443C24.2259 21.9552 24.5907 22.1742 25.0285 22.7581C25.369 23.1961 25.5393 23.6097 25.6123 23.7557C25.8068 24.1936 25.8555 24.5342 26.0014 25.4345C26.123 26.286 26.196 26.6996 26.2446 27.0889C26.4635 29.0353 27.023 31.1277 27.1202 31.1034C27.2175 31.0791 26.9013 29.8382 26.9013 27.6972C26.9013 26.797 26.9743 26.14 26.804 25.0452C26.7068 24.4612 26.6338 23.9503 26.3419 23.3664C26.269 23.2204 26.1717 23.0258 25.5879 22.1499C24.9555 21.201 24.9312 21.201 24.7366 20.909C24.2016 20.0575 23.9827 19.3032 23.7394 18.476C23.3503 17.1865 23.4476 17.0405 23.107 16.3836C22.8638 15.9213 22.6692 15.7267 22.5476 15.2157C22.4503 14.8021 22.4747 14.4858 22.2801 14.3885C22.2071 14.3885 22.0125 14.3885 22.1098 14.1452Z" stroke="#212473" stroke-width="0.182477" stroke-miterlimit="10"/>
<path d="M26.8274 15.8242C26.9004 15.6782 26.9247 15.4105 26.876 15.2402C26.7788 14.6563 26.7788 14.0724 26.6328 13.5128C26.5842 13.3181 26.5599 12.5882 26.5355 11.1284C26.5355 10.8851 26.4869 8.74405 26.5355 6.89495C26.5355 6.48133 26.5599 6.38401 26.5599 6.26236C26.6571 5.48379 26.8517 5.1675 26.8274 4.51058C26.8274 4.26728 26.8031 4.1213 26.7058 3.99965C26.4139 3.61036 25.6842 3.65902 25.2221 3.80501C24.6141 4.02398 24.2979 4.51058 24.1033 4.80255C23.5196 5.70277 23.4709 6.72464 23.4709 7.18691C23.4709 7.52754 23.4709 7.64919 23.4709 7.86816C23.4709 7.96548 23.4466 8.11146 23.4466 8.28178C23.3736 9.01168 23.3736 9.01168 23.3493 9.182V9.27932C23.325 9.37664 23.3736 10.3012 23.2277 11.5664C23.1547 12.1746 23.0088 12.9045 23.0331 13.3911C23.0331 13.4641 23.0574 13.5858 23.0331 13.7561C22.9845 14.121 22.8629 14.2184 22.8872 14.3643C22.8872 14.4373 22.8629 14.559 22.8629 14.559C22.8142 14.6076 22.8142 14.6563 22.7412 14.9969C22.644 15.4105 22.6196 15.4349 22.6196 15.5809C22.644 15.7998 22.7412 15.9458 22.8872 16.1161C23.0331 16.3108 22.9601 16.2864 23.4952 17.7949C23.6412 18.2329 23.6412 18.2085 23.7141 18.4032C23.933 19.0601 23.933 19.2061 24.0546 19.5954C24.2006 20.0576 24.4438 20.4712 24.9303 21.2985C25.3437 22.004 25.441 22.077 25.514 22.0527C25.6842 22.004 25.587 21.4688 25.7815 20.5442C25.9275 19.9116 26.0248 19.936 26.1464 19.3277C26.268 18.6708 26.1464 18.6708 26.2923 17.8922C26.4139 17.2353 26.4869 16.919 26.5842 16.7C26.6815 16.5297 26.8031 16.3594 26.7788 16.1648C26.7788 16.1648 26.7301 15.9701 26.8274 15.8242Z" stroke="#212473" stroke-width="0.182477" stroke-miterlimit="10"/>
<path d="M26.8037 22.1013C26.7308 22.2716 26.7551 22.4176 26.7551 22.4906C26.7064 23.1718 26.8037 23.0258 26.7794 23.8044C26.7551 24.364 26.7551 24.729 26.7064 24.7533C26.6335 24.7533 26.7551 23.9017 26.22 23.2691C26.0984 23.1232 25.8552 22.8312 25.6363 22.3932C25.6119 22.3203 25.5876 22.2473 25.5633 22.1743C25.4417 21.7363 25.539 21.4687 25.5633 21.1767C25.5876 20.8118 25.7579 20.6901 25.9524 20.0089C26.0011 19.8386 26.0497 19.6439 26.0984 19.3763C26.1957 18.8654 26.1227 18.768 26.1957 18.1841C26.2443 17.6732 26.293 17.4055 26.4146 17.1866C26.4632 17.0892 26.5848 16.8703 26.7064 16.5053C26.8037 16.262 26.7551 16.262 26.7551 16.1404L26.901 15.6538C27.1929 15.2401 27.0956 15.1672 27.3875 14.7049C27.7037 14.1939 28.0442 13.9506 28.2388 13.829C28.4577 13.683 28.6522 13.5614 28.8955 13.61C29.0657 13.6343 29.3089 13.756 29.4062 13.975C29.5522 14.2913 29.3089 14.6562 28.9198 15.7024C28.8711 15.8484 28.8225 15.9944 28.7738 16.1404C28.7009 16.3593 28.6522 16.5297 28.6279 16.6513C28.409 17.4299 28.409 17.6002 28.2631 17.9895L27.7766 19.1573C27.7037 19.3276 27.6793 19.4979 27.5577 19.6926C27.2659 20.2035 27.4361 20.3252 27.1199 21.1524C26.974 21.5174 26.8767 21.639 26.8037 21.8336V22.1013Z" stroke="#212473" stroke-width="0.182477" stroke-miterlimit="10"/>
<path d="M8.98307 25.9104C9.89805 23.5337 8.7524 20.8648 6.42266 19.9495C4.09292 19.0343 1.45562 20.2111 0.540639 22.5877C-0.374342 24.9643 0.771308 27.6333 3.10105 28.5485C5.43848 29.4638 8.06809 28.2793 8.98307 25.9104Z" fill="#E29813"/>
<path d="M7.91264 26.8101C9.57344 24.9026 9.41197 21.9876 7.54357 20.2955C5.67516 18.6034 2.8072 18.788 1.14639 20.6954C-0.514415 22.6029 -0.352946 25.5179 1.51546 27.21C3.38387 28.8945 6.25183 28.7176 7.91264 26.8101Z" fill="#EEBE13"/>
<path opacity="0.2" d="M4.52242 27.1178C6.42927 27.1024 7.96705 25.5565 7.95936 23.6644C7.95167 21.7723 6.39851 20.2494 4.49166 20.2648C2.58481 20.2801 1.04703 21.8261 1.05472 23.7182C1.06241 25.618 2.61557 27.1332 4.52242 27.1178Z" fill="white"/>
<path opacity="0.3" d="M4.49227 20.2726C6.36837 20.2573 7.89846 21.7648 7.95998 23.6492C7.95998 23.6107 7.96766 23.5876 7.95998 23.5492C7.95229 21.6109 6.40681 20.0573 4.49227 20.065C2.59311 20.0804 1.05533 21.6648 1.06302 23.6107C1.06302 23.6492 1.07071 23.6722 1.06302 23.7107C1.10915 21.8263 2.61618 20.2957 4.49227 20.2726Z" fill="black"/>
<path d="M6.04502 24.6718C6.03733 24.1796 5.81435 23.8565 5.46835 23.7258C5.7144 23.5719 5.87586 23.272 5.87586 22.8874C5.86818 22.3952 5.60675 22.0567 5.09929 21.9491L5.09159 21.3491H4.54568V21.9029H4.23813V21.3491H3.69221V21.9029L3.20012 21.9106L2.85412 21.9183V22.4721L3.20012 22.4644L3.2155 25.1564H2.83105V25.7102H3.2155L3.70759 25.7025V26.3562H4.2535V25.7025H4.56106V26.3562H5.10697V25.6871C5.73746 25.6025 6.05271 25.241 6.04502 24.6718ZM3.9075 22.4875L4.64564 22.4798C5.05315 22.4798 5.28382 22.649 5.29151 23.0028C5.2992 23.3566 5.06084 23.5181 4.65333 23.5258L3.81524 23.5412L3.80755 22.4951L3.9075 22.4875ZM4.77635 25.1641L3.88444 25.1718L3.82292 25.1641V24.0719L4.77635 24.0565C5.22231 24.0488 5.46066 24.218 5.46835 24.5949C5.46066 25.0025 5.22231 25.1641 4.77635 25.1641Z" fill="#E29813"/>
</svg>
